<!-- icon666.com - MILLIONS vector ICONS FREE --><svg enable-background="new 0 0 96 96" viewBox="0 0 96 96" xmlns="http://www.w3.org/2000/svg" xmlns:xlink="http://www.w3.org/1999/xlink"><linearGradient id="SVGID_1_" gradientUnits="userSpaceOnUse" x1="48" x2="48" y1="19.333" y2="160.04"><stop offset="0" stop-color="#63bd00"></stop><stop offset="1" stop-color="#00b342"></stop></linearGradient><g id="Background" display="none"><path d="m0 0h96v96h-96z" display="inline" fill="url(#SVGID_1_)" style="fill: rgb(255, 255, 255);"></path></g><g style="fill:none;stroke:#000;stroke-width:2;stroke-linecap:round;stroke-linejoin:round;stroke-miterlimit:10"><g id="Primary" display="none"><path d="m76.048 44.599s-6.717-8.651-12.695-13.968c-4.762-4.236-11.681-8.69-14.297-10.327-.649-.406-1.462-.406-2.111 0-2.617 1.637-9.535 6.091-14.297 10.327-5.978 5.317-12.695 13.968-12.695 13.968" display="inline" fill="#000000" style="fill: rgb(255, 255, 255);"></path><path d="m25.92 37.48c-.23 2.35-.92 9.96-.92 18.26 0 7.47.56 14.53.84 17.62.09.96.84 1.72 1.8 1.81 2.26.22 6.83.58 13.36.74 2.13.06 4.46.09 7 .09s4.88-.03 7-.09c6.53-.16 11.1-.52 13.37-.74.96-.09 1.7-.84 1.79-1.8.29-3.04.84-9.93.84-17.37 0-8.33-.69-16.14-.92-18.52" display="inline" fill="#000000" style="fill: rgb(255, 255, 255);"></path><path d="m41 75.914v-20.914c0-2.209 1.791-4 4-4h6c2.209 0 4 1.791 4 4v20.914" display="inline" fill="#000000" style="fill: rgb(255, 255, 255);"></path></g><g id="Outline_F.I" display="none"><path d="m76.048 44.599s-6.717-8.651-12.695-13.968c-4.762-4.236-11.681-8.69-14.297-10.327-.649-.406-1.462-.406-2.111 0-2.617 1.637-9.535 6.091-14.297 10.327-5.978 5.317-12.695 13.968-12.695 13.968" display="inline" fill="#000000" style="fill: rgb(255, 255, 255);"></path><path d="m25.92 37.48c-.23 2.35-.92 9.96-.92 18.26 0 7.47.56 14.53.84 17.62.09.96.84 1.72 1.8 1.81 2.26.22 6.83.58 13.36.74 2.13.06 4.46.09 7 .09s4.88-.03 7-.09c6.53-.16 11.1-.52 13.37-.74.96-.09 1.7-.84 1.79-1.8.29-3.04.84-9.93.84-17.37 0-8.33-.69-16.14-.92-18.52" display="inline" fill="#000000" style="fill: rgb(255, 255, 255);"></path><path d="m41 75.914v-20.914c0-2.209 1.791-4 4-4h6c2.209 0 4 1.791 4 4v20.914" display="inline" fill="#000000" style="fill: rgb(255, 255, 255);"></path></g><g id="Primary_pt.2" display="none"><circle cx="48" cy="48" display="inline" r="32" fill="#000000" style="fill: rgb(255, 255, 255);"></circle><path d="m23.01 67.99c.01-1.52.03-2.96.06-4.31.19-10.23 8.46-18.45 18.69-18.63 1.93-.03 4.01-.05 6.24-.05s4.31.02 6.24.05c10.23.18 18.5 8.4 18.69 18.63.03 1.35.05 2.79.06 4.31" display="inline" fill="#000000" style="fill: rgb(255, 255, 255);"></path><path d="m72 96s1-8 1-25c0-2.659-.024-5.097-.066-7.319-.19-10.235-8.463-18.449-18.698-18.628-1.922-.033-4.001-.053-6.236-.053s-4.314.02-6.236.053c-10.235.179-18.508 8.392-18.698 18.628-.042 2.222-.066 4.66-.066 7.319 0 17 1 25 1 25" fill="#000000" style="fill: rgb(255, 255, 255);"></path><circle cx="48" cy="30.5" display="inline" r="9.5" fill="#000000" style="fill: rgb(255, 255, 255);"></circle></g></g><g id="Line_Pt.2"><path d="m73.822 68.513c4.487-5.637 7.178-12.765 7.178-20.513 0-18.196-14.804-33-33-33s-33 14.804-33 33c0 7.748 2.691 14.876 7.178 20.513.049.078.099.151.167.212 6.055 7.481 15.304 12.275 25.655 12.275s19.6-4.794 25.655-12.275c.068-.061.118-.135.167-.212zm-25.822-51.513c17.094 0 31 13.906 31 31 0 6.242-1.861 12.055-5.047 16.925-.007-.424-.014-.856-.023-1.263-.2-10.806-8.841-19.42-19.674-19.611-1.936-.031-4.02-.051-6.256-.051s-4.32.02-6.258.05c-10.831.191-19.472 8.806-19.672 19.607-.009.409-.016.842-.023 1.267-3.186-4.869-5.047-10.682-5.047-16.924 0-17.094 13.906-31 31-31zm0 62c-9.658 0-18.297-4.441-23.986-11.386.011-1.371.029-2.683.057-3.915.18-9.725 7.958-17.477 17.705-17.648 1.926-.03 4-.05 6.225-.05s4.299.02 6.223.05c9.749.172 17.527 7.924 17.707 17.652.028 1.229.046 2.54.057 3.911-5.691 6.945-14.33 11.386-23.988 11.386zm0-38c5.79 0 10.5-4.71 10.5-10.5s-4.71-10.5-10.5-10.5-10.5 4.71-10.5 10.5 4.71 10.5 10.5 10.5zm0-19c4.687 0 8.5 3.813 8.5 8.5s-3.813 8.5-8.5 8.5-8.5-3.813-8.5-8.5 3.813-8.5 8.5-8.5z" fill="#000000" style="fill: rgb(255, 255, 255);"></path></g><g id="Line" display="none"><path d="m76.838 43.985c-.276-.356-6.842-8.784-12.82-14.102-4.796-4.266-11.69-8.713-14.431-10.427-.98-.613-2.194-.613-3.173 0-2.741 1.714-9.636 6.161-14.432 10.427-5.979 5.317-12.544 13.745-12.82 14.102-.339.437-.26 1.064.177 1.403.183.142.398.21.612.21.299 0 .594-.133.791-.387.032-.042 1.622-2.08 3.91-4.755-.297 3.687-.652 9.336-.652 15.284 0 7.312.528 14.234.844 17.713.135 1.438 1.271 2.578 2.699 2.712 2.134.208 6.717.58 13.429.745h.01c.006 0 .012.004.018.004.005 0 .009-.003.014-.003 2.131.059 4.48.089 6.986.089 2.517 0 4.868-.03 6.985-.089.005 0 .009.003.015.003.007 0 .012-.004.019-.004h.006c6.699-.165 11.297-.537 13.438-.744 1.427-.134 2.559-1.271 2.692-2.701.254-2.661.845-9.69.845-17.465 0-6.065-.358-11.814-.656-15.548 2.29 2.677 3.882 4.718 3.914 4.76.339.436.966.516 1.403.177s.516-.967.177-1.404zm-34.838 30.949v-19.934c0-1.654 1.346-3 3-3h6c1.654 0 3 1.346 3 3v19.934c-1.855.043-3.862.066-6 .066-2.13 0-4.137-.023-6-.066zm28-18.934c0 7.689-.584 14.643-.836 17.277-.045.483-.41.853-.891.897-2.006.195-6.193.535-12.273.709v-19.883c0-2.757-2.243-5-5-5h-6c-2.757 0-5 2.243-5 5v19.88c-6.082-.174-10.269-.512-12.268-.706-.475-.044-.852-.426-.896-.903-.313-3.443-.836-10.297-.836-17.531 0-7.655.594-14.807.883-17.833 2.007-2.238 4.273-4.612 6.429-6.529 4.682-4.164 11.464-8.538 14.163-10.226.322-.203.726-.203 1.05 0 2.698 1.688 9.48 6.062 14.162 10.226 2.156 1.917 4.422 4.291 6.429 6.529.289 3.065.884 10.315.884 18.093z" display="inline" fill="#000000" style="fill: rgb(255, 255, 255);"></path></g><g id="Solid" display="none"><path d="m64.018 29.884c-4.796-4.266-11.69-8.713-14.431-10.427-.49-.307-1.039-.46-1.587-.46s-1.096.153-1.586.46c-2.741 1.714-9.636 6.161-14.432 10.427-5.979 5.317-12.544 13.745-12.82 14.102-.339.437-.26 1.064.177 1.403.183.142.398.21.612.21.299 0 .594-.133.791-.387.066-.086 6.728-8.638 12.57-13.834 4.682-4.164 11.464-8.538 14.163-10.226.162-.101.343-.152.525-.152s.364.051.526.152c2.698 1.688 9.48 6.062 14.162 10.226 3.007 2.674 6.226 6.233 8.657 9.074.001.001.002.002.003.003 2.289 2.675 3.879 4.715 3.911 4.756.092.119.209.206.335.27.04.021.085.027.127.042.089.031.179.056.273.062.075.004.15-.002.225-.015.038-.007.076-.008.113-.018.116-.034.229-.085.331-.164.437-.339.516-.967.177-1.403-.278-.356-6.844-8.784-12.822-14.101z" display="inline" fill="#000000" style="fill: rgb(255, 255, 255);"></path><g display="inline"><path d="m54 55c0-1.654-1.346-3-3-3h-6c-1.654 0-3 1.346-3 3v21.935c1.865.042 3.871.065 6 .065 2.136 0 4.144-.023 6-.065z" fill="#000000" style="fill: rgb(255, 255, 255);"></path><path d="m71.587 43.846c-2.397-2.904-6.478-7.639-10.229-10.974-4.282-3.809-10.42-7.832-13.358-9.687-2.934 1.853-9.071 5.874-13.359 9.688-3.753 3.338-7.838 8.077-10.234 10.981-.217 3.375-.407 7.546-.407 11.886 0 7.312.528 14.234.844 17.713.135 1.438 1.271 2.578 2.699 2.712 2.029.198 6.276.543 12.457.719v-21.884c0-2.757 2.243-5 5-5h6c2.757 0 5 2.243 5 5v21.884c6.169-.175 10.427-.521 12.463-.718 1.427-.134 2.559-1.271 2.692-2.701.254-2.661.845-9.69.845-17.465 0-4.447-.193-8.716-.413-12.154z" fill="#000000" style="fill: rgb(255, 255, 255);"></path></g></g><g id="Solid_Pt.2" display="none"><path d="m71.93 63.702c.03 1.346.051 2.779.061 4.288v2.634c-6.022 6.381-14.546 10.376-23.991 10.376s-17.969-3.995-23.99-10.376v-2.627c.01-1.516.03-2.949.061-4.299.18-9.725 7.958-17.477 17.705-17.648 1.926-.03 10.523-.03 12.447 0 9.749.172 17.527 7.924 17.707 17.652zm-23.93-41.702c-4.687 0-8.5 3.813-8.5 8.5s3.813 8.5 8.5 8.5 8.5-3.813 8.5-8.5-3.813-8.5-8.5-8.5zm25.99 46.298v-.315c-.01-1.525-.03-2.971-.061-4.322-.2-10.806-8.841-19.42-19.674-19.611-1.936-.03-10.576-.03-12.514 0-10.831.191-19.472 8.806-19.672 19.607-.03 1.355-.051 2.801-.061 4.333v.308c-4.384-5.603-7.008-12.648-7.008-20.298 0-18.196 14.804-33 33-33s33 14.804 33 33c0 7.65-2.624 14.695-7.01 20.298zm-15.49-37.798c0-5.79-4.71-10.5-10.5-10.5s-10.5 4.71-10.5 10.5 4.71 10.5 10.5 10.5 10.5-4.71 10.5-10.5z" display="inline" fill="#000000" style="fill: rgb(255, 255, 255);"></path></g></svg>